<svg width="128" height="128" viewBox="0 0 128 128" fill="none" xmlns="http://www.w3.org/2000/svg">
<line x1="4.75" y1="25" x2="4.75" y2="123" stroke="white" stroke-width="1.5"/>
<line x1="125" y1="123.75" x2="4" y2="123.75" stroke="white" stroke-width="1.5"/>
<path d="M9 102L20.0214 86.043C21.1045 84.4749 23.3562 84.301 24.6672 85.6842L26.4591 87.5749C27.8411 89.033 30.2379 88.7472 31.2382 87.0049L37.4338 76.2138C38.7153 73.9817 42.0281 74.2937 42.8703 76.7258L48.3411 92.5234C49.2651 95.1915 53.0275 95.2219 53.9945 92.5691L61.8859 70.9211C61.9877 70.6419 62.1304 70.3794 62.3093 70.1421L70.1437 59.7545C71.4641 58.0037 74.1555 58.215 75.1866 60.1503L82.8873 74.6043C83.1968 75.1853 83.6889 75.6483 84.2876 75.922L98.8885 82.5976C99.4606 82.8592 100.101 82.9343 100.718 82.8123L120 79" stroke="white"/>
<path d="M80 33C80 37.9706 75.9706 42 71 42C66.0294 42 62 37.9706 62 33C62 28.0294 66.0294 24 71 24C75.9706 24 80 28.0294 80 33ZM63.8 33C63.8 36.9765 67.0235 40.2 71 40.2C74.9765 40.2 78.2 36.9765 78.2 33C78.2 29.0235 74.9765 25.8 71 25.8C67.0235 25.8 63.8 29.0235 63.8 33Z" fill="white"/>
<line x1="76.6508" y1="39.2407" x2="83.6508" y2="45.2407" stroke="white" stroke-width="2"/>
<path d="M70.233 35.5455V35.4943C70.2386 34.9517 70.2955 34.5199 70.4034 34.1989C70.5114 33.8778 70.6648 33.6179 70.8636 33.419C71.0625 33.2202 71.3011 33.0369 71.5795 32.8693C71.7472 32.767 71.8977 32.6463 72.0312 32.5071C72.1648 32.3651 72.2699 32.2017 72.3466 32.017C72.4261 31.8324 72.4659 31.6278 72.4659 31.4034C72.4659 31.125 72.4006 30.8835 72.2699 30.679C72.1392 30.4744 71.9645 30.3168 71.7457 30.206C71.527 30.0952 71.2841 30.0398 71.017 30.0398C70.7841 30.0398 70.5597 30.0881 70.3438 30.1847C70.1278 30.2812 69.9474 30.4332 69.8026 30.6406C69.6577 30.848 69.5739 31.1193 69.5511 31.4545H68.4773C68.5 30.9716 68.625 30.5582 68.8523 30.2145C69.0824 29.8707 69.3849 29.608 69.7599 29.4261C70.1378 29.2443 70.5568 29.1534 71.017 29.1534C71.517 29.1534 71.9517 29.2528 72.321 29.4517C72.6932 29.6506 72.9801 29.9233 73.1818 30.2699C73.3864 30.6165 73.4886 31.0114 73.4886 31.4545C73.4886 31.767 73.4403 32.0497 73.3438 32.3026C73.25 32.5554 73.1136 32.7812 72.9347 32.9801C72.7585 33.179 72.5455 33.3551 72.2955 33.5085C72.0455 33.6648 71.8452 33.8295 71.6946 34.0028C71.544 34.1733 71.4347 34.3764 71.3665 34.6122C71.2983 34.848 71.2614 35.142 71.2557 35.4943V35.5455H70.233ZM70.7784 38.0682C70.5682 38.0682 70.3878 37.9929 70.2372 37.8423C70.0866 37.6918 70.0114 37.5114 70.0114 37.3011C70.0114 37.0909 70.0866 36.9105 70.2372 36.7599C70.3878 36.6094 70.5682 36.5341 70.7784 36.5341C70.9886 36.5341 71.169 36.6094 71.3196 36.7599C71.4702 36.9105 71.5455 37.0909 71.5455 37.3011C71.5455 37.4403 71.5099 37.5682 71.4389 37.6847C71.3707 37.8011 71.2784 37.8949 71.1619 37.9659C71.0483 38.0341 70.9205 38.0682 70.7784 38.0682Z" fill="white"/>
</svg>
